<svg xmlns="http://www.w3.org/2000/svg" version="1.1" xmlns:xlink="http://www.w3.org/1999/xlink" xmlns:svgjs="http://svgjs.dev/svgjs" viewBox="0 0 11.420820017467877 2.9779542486116397"><g transform="matrix(1,0,0,1,2.581160110835995,0.51153962430582)"><g><path d=" M 0.489 1.0799999999999996 Q 0.34500000000000003 1.0799999999999996 0.24825 1.0379999999999998 Q 0.1515 0.9959999999999998 0.10200000000000001 0.9284999999999997 Q 0.0525 0.8609999999999998 0.0495 0.7844999999999998 Q 0.0495 0.7724999999999997 0.0585 0.7627499999999997 Q 0.0675 0.7529999999999997 0.081 0.7529999999999997 L 0.2415 0.7529999999999997 Q 0.261 0.7529999999999997 0.2715 0.7612499999999998 Q 0.28200000000000003 0.7694999999999997 0.291 0.7814999999999996 Q 0.3015 0.8069999999999997 0.32475 0.8309999999999997 Q 0.34800000000000003 0.8549999999999998 0.3885 0.8707499999999997 Q 0.429 0.8864999999999997 0.489 0.8864999999999997 Q 0.5865 0.8864999999999997 0.63525 0.8549999999999998 Q 0.684 0.8234999999999997 0.684 0.7694999999999997 Q 0.684 0.7304999999999997 0.6577500000000001 0.7064999999999997 Q 0.6315000000000001 0.6824999999999997 0.57525 0.6629999999999997 Q 0.519 0.6434999999999997 0.426 0.6209999999999998 Q 0.3135 0.5969999999999998 0.23475000000000001 0.5587499999999997 Q 0.156 0.5204999999999997 0.11625 0.45974999999999966 Q 0.0765 0.3989999999999997 0.0765 0.3089999999999997 Q 0.0765 0.21899999999999975 0.126 0.14924999999999966 Q 0.17550000000000002 0.07949999999999968 0.2655 0.03974999999999973 Q 0.3555 -2.220446049250313e-16 0.48 -2.220446049250313e-16 Q 0.5805 -2.220446049250313e-16 0.6577500000000001 0.02699999999999969 Q 0.735 0.053999999999999604 0.7867500000000001 0.0974999999999997 Q 0.8385 0.14099999999999968 0.8655 0.19049999999999967 Q 0.8925000000000001 0.23999999999999966 0.894 0.28649999999999975 Q 0.894 0.29849999999999965 0.885 0.3082499999999997 Q 0.876 0.3179999999999997 0.8625 0.3179999999999997 L 0.6945 0.3179999999999997 Q 0.6795 0.3179999999999997 0.6675 0.3119999999999997 Q 0.6555 0.3059999999999997 0.648 0.2909999999999997 Q 0.639 0.25199999999999967 0.59475 0.22274999999999967 Q 0.5505 0.19349999999999967 0.48 0.19349999999999967 Q 0.40650000000000003 0.19349999999999967 0.36375 0.2204999999999997 Q 0.321 0.24749999999999972 0.321 0.3029999999999997 Q 0.321 0.33899999999999975 0.34275 0.3637499999999997 Q 0.3645 0.38849999999999973 0.41625 0.40724999999999967 Q 0.468 0.4259999999999997 0.5535 0.4484999999999997 Q 0.6855 0.4754999999999997 0.768 0.5129999999999997 Q 0.8505 0.5504999999999998 0.8895000000000001 0.6097499999999998 Q 0.9285 0.6689999999999997 0.9285 0.7589999999999997 Q 0.9285 0.8594999999999997 0.87225 0.9314999999999998 Q 0.8160000000000001 1.0034999999999998 0.71775 1.0417499999999997 Q 0.6195 1.0799999999999996 0.489 1.0799999999999996 M 1.12946630859375 1.0649999999999997 Q 1.11446630859375 1.0649999999999997 1.10321630859375 1.0544999999999998 Q 1.09196630859375 1.0439999999999998 1.09196630859375 1.0274999999999996 L 1.09196630859375 0.05249999999999977 Q 1.09196630859375 0.03599999999999981 1.10321630859375 0.025499999999999634 Q 1.11446630859375 0.01499999999999968 1.12946630859375 0.01499999999999968 L 1.26896630859375 0.01499999999999968 Q 1.29146630859375 0.01499999999999968 1.3027163085937499 0.02699999999999969 Q 1.31396630859375 0.0389999999999997 1.31846630859375 0.04499999999999971 L 1.59446630859375 0.5534999999999997 L 1.8734663085937502 0.04499999999999971 Q 1.87646630859375 0.0389999999999997 1.88771630859375 0.02699999999999969 Q 1.89896630859375 0.01499999999999968 1.92146630859375 0.01499999999999968 L 2.06096630859375 0.01499999999999968 Q 2.07746630859375 0.01499999999999968 2.08796630859375 0.025499999999999634 Q 2.09846630859375 0.03599999999999981 2.09846630859375 0.05249999999999977 L 2.09846630859375 1.0274999999999996 Q 2.09846630859375 1.0439999999999998 2.08796630859375 1.0544999999999998 Q 2.07746630859375 1.0649999999999997 2.06096630859375 1.0649999999999997 L 1.9079663085937502 1.0649999999999997 Q 1.89296630859375 1.0649999999999997 1.88246630859375 1.0544999999999998 Q 1.8719663085937501 1.0439999999999998 1.8719663085937501 1.0274999999999996 L 1.8719663085937501 0.42149999999999976 L 1.68146630859375 0.7784999999999997 Q 1.6739663085937502 0.7919999999999997 1.6619663085937502 0.8024999999999998 Q 1.6499663085937502 0.8129999999999997 1.6304663085937499 0.8129999999999997 L 1.5599663085937499 0.8129999999999997 Q 1.54046630859375 0.8129999999999997 1.52846630859375 0.8024999999999998 Q 1.51646630859375 0.7919999999999997 1.5089663085937501 0.7784999999999997 L 1.31846630859375 0.42149999999999976 L 1.31846630859375 1.0274999999999996 Q 1.31846630859375 1.0439999999999998 1.30796630859375 1.0544999999999998 Q 1.2974663085937501 1.0649999999999997 1.28246630859375 1.0649999999999997 L 1.12946630859375 1.0649999999999997 M 2.2619208984375003 1.0649999999999997 Q 2.2484208984375003 1.0649999999999997 2.2394208984375004 1.0552499999999998 Q 2.2304208984375 1.0454999999999997 2.2304208984375 1.0334999999999996 Q 2.2304208984375 1.0259999999999998 2.2319208984375 1.0199999999999998 L 2.5889208984375003 0.05549999999999966 Q 2.5934208984375005 0.0389999999999997 2.6069208984375 0.02699999999999969 Q 2.6204208984375 0.01499999999999968 2.6444208984375 0.01499999999999968 L 2.8364208984375003 0.01499999999999968 Q 2.8604208984375004 0.01499999999999968 2.8739208984375004 0.02699999999999969 Q 2.8874208984375 0.0389999999999997 2.8919208984375 0.05549999999999966 L 3.2489208984375004 1.0199999999999998 Q 3.2504208984375005 1.0259999999999998 3.2504208984375005 1.0334999999999996 Q 3.2504208984375005 1.0454999999999997 3.2414208984375 1.0552499999999998 Q 3.2324208984375002 1.0649999999999997 3.2189208984375 1.0649999999999997 L 3.0629208984375005 1.0649999999999997 Q 3.0404208984375005 1.0649999999999997 3.0299208984375 1.0544999999999998 Q 3.0194208984375 1.0439999999999998 3.0164208984375005 1.0349999999999997 L 2.9519208984375003 0.8669999999999998 L 2.5289208984375002 0.8669999999999998 L 2.4644208984375 1.0349999999999997 Q 2.4614208984375003 1.0439999999999998 2.4509208984375004 1.0544999999999998 Q 2.4404208984375004 1.0649999999999997 2.4179208984375 1.0649999999999997 L 2.2619208984375003 1.0649999999999997 M 2.5844208984375 0.6734999999999998 L 2.8949208984375003 0.6734999999999998 L 2.7404208984375003 0.24149999999999971 L 2.5844208984375 0.6734999999999998 M 3.41989013671875 1.0649999999999997 Q 3.4033901367187505 1.0649999999999997 3.3928901367187505 1.0544999999999998 Q 3.3823901367187506 1.0439999999999998 3.3823901367187506 1.0274999999999996 L 3.3823901367187506 0.05249999999999977 Q 3.3823901367187506 0.03599999999999981 3.3928901367187505 0.025499999999999634 Q 3.4033901367187505 0.01499999999999968 3.41989013671875 0.01499999999999968 L 3.8173901367187506 0.01499999999999968 Q 4.004890136718751 0.01499999999999968 4.11289013671875 0.10124999999999973 Q 4.220890136718751 0.18749999999999967 4.220890136718751 0.3494999999999997 Q 4.220890136718751 0.45899999999999974 4.168390136718751 0.5324999999999998 Q 4.11589013671875 0.6059999999999997 4.027390136718751 0.6419999999999997 L 4.238890136718751 1.0169999999999997 Q 4.24339013671875 1.0259999999999998 4.24339013671875 1.0334999999999996 Q 4.24339013671875 1.0454999999999997 4.23439013671875 1.0552499999999998 Q 4.22539013671875 1.0649999999999997 4.2118901367187505 1.0649999999999997 L 4.04539013671875 1.0649999999999997 Q 4.01839013671875 1.0649999999999997 4.004890136718751 1.0507499999999996 Q 3.99139013671875 1.0364999999999998 3.9853901367187503 1.0244999999999997 L 3.8023901367187505 0.6809999999999997 L 3.6208901367187503 0.6809999999999997 L 3.6208901367187503 1.0274999999999996 Q 3.6208901367187503 1.0439999999999998 3.6103901367187503 1.0544999999999998 Q 3.5998901367187504 1.0649999999999997 3.58339013671875 1.0649999999999997 L 3.41989013671875 1.0649999999999997 M 3.6208901367187503 0.4904999999999997 L 3.8128901367187504 0.4904999999999997 Q 3.8953901367187505 0.4904999999999997 3.9351401367187506 0.45299999999999974 Q 3.9748901367187504 0.41549999999999976 3.9748901367187504 0.34799999999999975 Q 3.9748901367187504 0.28049999999999975 3.93589013671875 0.24149999999999971 Q 3.8968901367187505 0.20249999999999968 3.8128901367187504 0.20249999999999968 L 3.6208901367187503 0.20249999999999968 L 3.6208901367187503 0.4904999999999997 M 4.666371826171876 1.0649999999999997 Q 4.649871826171875 1.0649999999999997 4.6393718261718755 1.0544999999999998 Q 4.628871826171875 1.0439999999999998 4.628871826171875 1.0274999999999996 L 4.628871826171875 0.2234999999999997 L 4.355871826171875 0.2234999999999997 Q 4.340871826171876 0.2234999999999997 4.330371826171875 0.21299999999999975 Q 4.319871826171876 0.20249999999999968 4.319871826171876 0.18749999999999967 L 4.319871826171876 0.05249999999999977 Q 4.319871826171876 0.03599999999999981 4.330371826171875 0.025499999999999634 Q 4.340871826171876 0.01499999999999968 4.355871826171875 0.01499999999999968 L 5.141871826171876 0.01499999999999968 Q 5.158371826171876 0.01499999999999968 5.168871826171875 0.025499999999999634 Q 5.1793718261718755 0.03599999999999981 5.1793718261718755 0.05249999999999977 L 5.1793718261718755 0.18749999999999967 Q 5.1793718261718755 0.20249999999999968 5.168871826171875 0.21299999999999975 Q 5.158371826171876 0.2234999999999997 5.141871826171876 0.2234999999999997 L 4.870371826171875 0.2234999999999997 L 4.870371826171875 1.0274999999999996 Q 4.870371826171875 1.0439999999999998 4.859871826171876 1.0544999999999998 Q 4.8493718261718755 1.0649999999999997 4.832871826171876 1.0649999999999997 L 4.666371826171876 1.0649999999999997 M 5.725342529296876 1.0799999999999996 Q 5.588842529296875 1.0799999999999996 5.489842529296876 1.0349999999999997 Q 5.390842529296876 0.9899999999999998 5.3353425292968755 0.8992499999999997 Q 5.279842529296875 0.8084999999999998 5.275342529296876 0.6704999999999997 Q 5.273842529296876 0.6059999999999997 5.273842529296876 0.5422499999999997 Q 5.273842529296876 0.4784999999999997 5.275342529296876 0.41249999999999976 Q 5.279842529296875 0.27749999999999975 5.3360925292968755 0.1852499999999997 Q 5.392342529296876 0.09299999999999975 5.492092529296875 0.046499999999999764 Q 5.591842529296875 -2.220446049250313e-16 5.725342529296876 -2.220446049250313e-16 Q 5.857342529296876 -2.220446049250313e-16 5.957092529296876 0.046499999999999764 Q 6.056842529296875 0.09299999999999975 6.113842529296876 0.1852499999999997 Q 6.170842529296875 0.27749999999999975 6.173842529296875 0.41249999999999976 Q 6.176842529296875 0.4784999999999997 6.176842529296875 0.5422499999999997 Q 6.176842529296875 0.6059999999999997 6.173842529296875 0.6704999999999997 Q 6.169342529296875 0.8084999999999998 6.113842529296876 0.8992499999999997 Q 6.058342529296875 0.9899999999999998 5.959342529296876 1.0349999999999997 Q 5.860342529296876 1.0799999999999996 5.725342529296876 1.0799999999999996 M 5.725342529296876 0.8864999999999997 Q 5.812342529296876 0.8864999999999997 5.868592529296875 0.8332499999999997 Q 5.924842529296876 0.7799999999999997 5.927842529296876 0.6629999999999997 Q 5.930842529296876 0.5969999999999998 5.930842529296876 0.5392499999999997 Q 5.930842529296876 0.4814999999999997 5.927842529296876 0.4169999999999997 Q 5.926342529296876 0.33899999999999975 5.8993425292968755 0.28949999999999976 Q 5.872342529296875 0.23999999999999966 5.8280925292968755 0.21674999999999967 Q 5.783842529296876 0.19349999999999967 5.725342529296876 0.19349999999999967 Q 5.666842529296876 0.19349999999999967 5.621842529296876 0.21674999999999967 Q 5.576842529296876 0.23999999999999966 5.550592529296876 0.28949999999999976 Q 5.5243425292968755 0.33899999999999975 5.521342529296875 0.4169999999999997 Q 5.519842529296875 0.4814999999999997 5.519842529296875 0.5392499999999997 Q 5.519842529296875 0.5969999999999998 5.521342529296875 0.6629999999999997 Q 5.525842529296876 0.7799999999999997 5.581342529296876 0.8332499999999997 Q 5.636842529296875 0.8864999999999997 5.725342529296876 0.8864999999999997 M 6.403346923828126 1.0649999999999997 Q 6.386846923828125 1.0649999999999997 6.376346923828126 1.0544999999999998 Q 6.3658469238281254 1.0439999999999998 6.3658469238281254 1.0274999999999996 L 6.3658469238281254 0.05249999999999977 Q 6.3658469238281254 0.03599999999999981 6.376346923828126 0.025499999999999634 Q 6.386846923828125 0.01499999999999968 6.403346923828126 0.01499999999999968 L 6.779846923828126 0.01499999999999968 Q 6.9298469238281255 0.01499999999999968 7.030346923828126 0.062249999999999694 Q 7.130846923828126 0.10949999999999971 7.184096923828125 0.2002499999999997 Q 7.237346923828126 0.2909999999999997 7.240346923828126 0.42449999999999977 Q 7.241846923828126 0.4904999999999997 7.241846923828126 0.5399999999999997 Q 7.241846923828126 0.5894999999999997 7.240346923828126 0.6539999999999997 Q 7.2358469238281256 0.7934999999999997 7.184846923828125 0.8849999999999998 Q 7.133846923828125 0.9764999999999997 7.034846923828126 1.0207499999999998 Q 6.935846923828126 1.0649999999999997 6.787346923828125 1.0649999999999997 L 6.403346923828126 1.0649999999999997 M 6.604346923828126 0.8714999999999997 L 6.779846923828126 0.8714999999999997 Q 6.854846923828125 0.8714999999999997 6.902846923828125 0.8489999999999998 Q 6.950846923828125 0.8264999999999997 6.974096923828125 0.7777499999999997 Q 6.997346923828125 0.7289999999999996 6.9988469238281255 0.6509999999999997 Q 7.0003469238281255 0.6074999999999997 7.0010969238281255 0.5729999999999997 Q 7.001846923828126 0.5384999999999998 7.0010969238281255 0.5039999999999997 Q 7.0003469238281255 0.4694999999999997 6.9988469238281255 0.42749999999999966 Q 6.995846923828125 0.3149999999999997 6.941096923828126 0.2617499999999997 Q 6.886346923828126 0.20849999999999969 6.772346923828126 0.20849999999999969 L 6.604346923828126 0.20849999999999969 L 6.604346923828126 0.8714999999999997 M 7.849323486328126 1.0799999999999996 Q 7.7128234863281255 1.0799999999999996 7.613823486328126 1.0349999999999997 Q 7.514823486328126 0.9899999999999998 7.459323486328126 0.8992499999999997 Q 7.403823486328125 0.8084999999999998 7.399323486328126 0.6704999999999997 Q 7.397823486328126 0.6059999999999997 7.397823486328126 0.5422499999999997 Q 7.397823486328126 0.4784999999999997 7.399323486328126 0.41249999999999976 Q 7.403823486328125 0.27749999999999975 7.460073486328126 0.1852499999999997 Q 7.516323486328126 0.09299999999999975 7.616073486328125 0.046499999999999764 Q 7.715823486328126 -2.220446049250313e-16 7.849323486328126 -2.220446049250313e-16 Q 7.981323486328126 -2.220446049250313e-16 8.081073486328126 0.046499999999999764 Q 8.180823486328126 0.09299999999999975 8.237823486328125 0.1852499999999997 Q 8.294823486328125 0.27749999999999975 8.297823486328125 0.41249999999999976 Q 8.300823486328126 0.4784999999999997 8.300823486328126 0.5422499999999997 Q 8.300823486328126 0.6059999999999997 8.297823486328125 0.6704999999999997 Q 8.293323486328125 0.8084999999999998 8.237823486328125 0.8992499999999997 Q 8.182323486328126 0.9899999999999998 8.083323486328126 1.0349999999999997 Q 7.984323486328126 1.0799999999999996 7.849323486328126 1.0799999999999996 M 7.849323486328126 0.8864999999999997 Q 7.936323486328126 0.8864999999999997 7.9925734863281255 0.8332499999999997 Q 8.048823486328125 0.7799999999999997 8.051823486328125 0.6629999999999997 Q 8.054823486328125 0.5969999999999998 8.054823486328125 0.5392499999999997 Q 8.054823486328125 0.4814999999999997 8.051823486328125 0.4169999999999997 Q 8.050323486328125 0.33899999999999975 8.023323486328126 0.28949999999999976 Q 7.996323486328126 0.23999999999999966 7.952073486328126 0.21674999999999967 Q 7.907823486328126 0.19349999999999967 7.849323486328126 0.19349999999999967 Q 7.790823486328126 0.19349999999999967 7.745823486328126 0.21674999999999967 Q 7.700823486328126 0.23999999999999966 7.674573486328126 0.28949999999999976 Q 7.648323486328126 0.33899999999999975 7.645323486328126 0.4169999999999997 Q 7.643823486328126 0.4814999999999997 7.643823486328126 0.5392499999999997 Q 7.643823486328126 0.5969999999999998 7.645323486328126 0.6629999999999997 Q 7.649823486328126 0.7799999999999997 7.705323486328126 0.8332499999999997 Q 7.760823486328126 0.8864999999999997 7.849323486328126 0.8864999999999997" fill="#173054" fill-rule="nonzero"></path></g><g><path d=" M 0.0825 1.9548749999999997 Q 0.07425 1.9548749999999997 0.06975 1.9499999999999997 Q 0.06525 1.9451249999999998 0.06525 1.9376249999999997 L 0.06525 1.4478749999999998 Q 0.06525 1.4396249999999997 0.06975 1.4347499999999997 Q 0.07425 1.4298749999999996 0.0825 1.4298749999999996 L 0.3885 1.4298749999999996 Q 0.39675 1.4298749999999996 0.401625 1.4347499999999997 Q 0.40650000000000003 1.4396249999999997 0.40650000000000003 1.4478749999999998 L 0.40650000000000003 1.4778749999999996 Q 0.40650000000000003 1.4861249999999997 0.401625 1.4906249999999996 Q 0.39675 1.4951249999999998 0.3885 1.4951249999999998 L 0.138 1.4951249999999998 L 0.138 1.6698749999999998 L 0.3735 1.6698749999999998 Q 0.38175000000000003 1.6698749999999998 0.386625 1.6747499999999997 Q 0.3915 1.6796249999999997 0.3915 1.6878749999999996 L 0.3915 1.7178749999999996 Q 0.3915 1.7253749999999997 0.386625 1.7302499999999996 Q 0.38175000000000003 1.7351249999999996 0.3735 1.7351249999999996 L 0.138 1.7351249999999996 L 0.138 1.9376249999999997 Q 0.138 1.9451249999999998 0.133125 1.9499999999999997 Q 0.12825 1.9548749999999997 0.12 1.9548749999999997 L 0.0825 1.9548749999999997 M 0.6884846191406251 1.9623749999999998 Q 0.623984619140625 1.9623749999999998 0.578234619140625 1.9402499999999996 Q 0.532484619140625 1.9181249999999996 0.507734619140625 1.8719999999999997 Q 0.482984619140625 1.8258749999999997 0.479984619140625 1.7561249999999997 Q 0.479234619140625 1.7231249999999996 0.479234619140625 1.6927499999999998 Q 0.479234619140625 1.6623749999999997 0.479984619140625 1.6293749999999996 Q 0.482984619140625 1.5603749999999996 0.5088596191406249 1.5142499999999997 Q 0.534734619140625 1.4681249999999997 0.580859619140625 1.4452499999999997 Q 0.626984619140625 1.4223749999999997 0.6884846191406251 1.4223749999999997 Q 0.749234619140625 1.4223749999999997 0.795359619140625 1.4452499999999997 Q 0.841484619140625 1.4681249999999997 0.867734619140625 1.5142499999999997 Q 0.893984619140625 1.5603749999999996 0.896234619140625 1.6293749999999996 Q 0.897734619140625 1.6623749999999997 0.897734619140625 1.6927499999999998 Q 0.897734619140625 1.7231249999999996 0.896234619140625 1.7561249999999997 Q 0.893984619140625 1.8258749999999997 0.868859619140625 1.8719999999999997 Q 0.843734619140625 1.9181249999999996 0.797984619140625 1.9402499999999996 Q 0.7522346191406251 1.9623749999999998 0.6884846191406251 1.9623749999999998 M 0.6884846191406251 1.8986249999999998 Q 0.745484619140625 1.8986249999999998 0.7818596191406251 1.8641249999999996 Q 0.818234619140625 1.8296249999999996 0.821234619140625 1.7523749999999998 Q 0.8227346191406251 1.7186249999999996 0.8227346191406251 1.6919999999999997 Q 0.8227346191406251 1.6653749999999996 0.821234619140625 1.6323749999999997 Q 0.819734619140625 1.5806249999999997 0.802109619140625 1.5483749999999996 Q 0.784484619140625 1.5161249999999997 0.755234619140625 1.5011249999999996 Q 0.725984619140625 1.4861249999999997 0.6884846191406251 1.4861249999999997 Q 0.650984619140625 1.4861249999999997 0.621734619140625 1.5011249999999996 Q 0.592484619140625 1.5161249999999997 0.574859619140625 1.5483749999999996 Q 0.557234619140625 1.5806249999999997 0.554984619140625 1.6323749999999997 Q 0.554234619140625 1.6653749999999996 0.554234619140625 1.6919999999999997 Q 0.554234619140625 1.7186249999999996 0.554984619140625 1.7523749999999998 Q 0.557984619140625 1.8296249999999996 0.594734619140625 1.8641249999999996 Q 0.631484619140625 1.8986249999999998 0.6884846191406251 1.8986249999999998 M 1.024486083984375 1.9548749999999997 Q 1.016236083984375 1.9548749999999997 1.011736083984375 1.9499999999999997 Q 1.007236083984375 1.9451249999999998 1.007236083984375 1.9376249999999997 L 1.007236083984375 1.4478749999999998 Q 1.007236083984375 1.4396249999999997 1.011736083984375 1.4347499999999997 Q 1.016236083984375 1.4298749999999996 1.024486083984375 1.4298749999999996 L 1.207486083984375 1.4298749999999996 Q 1.292236083984375 1.4298749999999996 1.341736083984375 1.4696249999999997 Q 1.391236083984375 1.5093749999999997 1.391236083984375 1.5873749999999998 Q 1.391236083984375 1.6451249999999997 1.362361083984375 1.6814999999999998 Q 1.333486083984375 1.7178749999999996 1.283986083984375 1.7321249999999997 L 1.399486083984375 1.9316249999999997 Q 1.401736083984375 1.9361249999999997 1.401736083984375 1.9398749999999998 Q 1.401736083984375 1.9458749999999998 1.396861083984375 1.9503749999999997 Q 1.391986083984375 1.9548749999999997 1.385986083984375 1.9548749999999997 L 1.349986083984375 1.9548749999999997 Q 1.3372360839843749 1.9548749999999997 1.331236083984375 1.9481249999999997 Q 1.325236083984375 1.9413749999999996 1.3207360839843751 1.9346249999999996 L 1.211986083984375 1.7441249999999997 L 1.080736083984375 1.7441249999999997 L 1.080736083984375 1.9376249999999997 Q 1.080736083984375 1.9451249999999998 1.075861083984375 1.9499999999999997 Q 1.070986083984375 1.9548749999999997 1.062736083984375 1.9548749999999997 L 1.024486083984375 1.9548749999999997 M 1.080736083984375 1.6803749999999997 L 1.204486083984375 1.6803749999999997 Q 1.260736083984375 1.6803749999999997 1.288486083984375 1.6567499999999997 Q 1.316236083984375 1.6331249999999997 1.316236083984375 1.5866249999999997 Q 1.316236083984375 1.5408749999999998 1.288861083984375 1.5168749999999998 Q 1.2614860839843751 1.4928749999999997 1.204486083984375 1.4928749999999997 L 1.080736083984375 1.4928749999999997 L 1.080736083984375 1.6803749999999997 M 1.689025634765625 1.9623749999999998 Q 1.622275634765625 1.9623749999999998 1.5761506347656251 1.9376249999999997 Q 1.530025634765625 1.9128749999999997 1.505650634765625 1.8678749999999997 Q 1.481275634765625 1.8228749999999998 1.478275634765625 1.7621249999999997 Q 1.477525634765625 1.7291249999999998 1.477525634765625 1.6919999999999997 Q 1.477525634765625 1.6548749999999997 1.478275634765625 1.6211249999999997 Q 1.481275634765625 1.5603749999999996 1.505650634765625 1.5157499999999997 Q 1.530025634765625 1.4711249999999998 1.5765256347656251 1.4467499999999998 Q 1.6230256347656251 1.4223749999999997 1.689025634765625 1.4223749999999997 Q 1.741525634765625 1.4223749999999997 1.780525634765625 1.4373749999999998 Q 1.819525634765625 1.4523749999999995 1.844650634765625 1.4752499999999997 Q 1.8697756347656251 1.4981249999999997 1.882150634765625 1.5228749999999998 Q 1.894525634765625 1.5476249999999996 1.895275634765625 1.5663749999999996 Q 1.896025634765625 1.5731249999999997 1.891525634765625 1.5772499999999998 Q 1.887025634765625 1.5813749999999998 1.879525634765625 1.5813749999999998 L 1.835275634765625 1.5813749999999998 Q 1.8277756347656249 1.5813749999999998 1.824400634765625 1.5783749999999996 Q 1.821025634765625 1.5753749999999997 1.818025634765625 1.5678749999999997 Q 1.8112756347656251 1.5483749999999996 1.795900634765625 1.5296249999999998 Q 1.780525634765625 1.5108749999999997 1.754650634765625 1.4984999999999997 Q 1.7287756347656251 1.4861249999999997 1.689025634765625 1.4861249999999997 Q 1.629025634765625 1.4861249999999997 1.592650634765625 1.5183749999999998 Q 1.556275634765625 1.5506249999999997 1.553275634765625 1.6248749999999996 Q 1.551025634765625 1.6916249999999997 1.553275634765625 1.7583749999999996 Q 1.556275634765625 1.8333749999999998 1.593025634765625 1.8659999999999997 Q 1.629775634765625 1.8986249999999998 1.689025634765625 1.8986249999999998 Q 1.7287756347656251 1.8986249999999998 1.759900634765625 1.8836249999999997 Q 1.791025634765625 1.8686249999999998 1.809025634765625 1.8382499999999997 Q 1.827025634765625 1.8078749999999997 1.827025634765625 1.7606249999999997 L 1.827025634765625 1.7291249999999998 L 1.714525634765625 1.7291249999999998 Q 1.707025634765625 1.7291249999999998 1.702150634765625 1.7242499999999996 Q 1.697275634765625 1.7193749999999997 1.697275634765625 1.7111249999999998 L 1.697275634765625 1.6871249999999998 Q 1.697275634765625 1.6788749999999997 1.702150634765625 1.6739999999999997 Q 1.707025634765625 1.6691249999999997 1.714525634765625 1.6691249999999997 L 1.884025634765625 1.6691249999999997 Q 1.892275634765625 1.6691249999999997 1.896775634765625 1.6739999999999997 Q 1.901275634765625 1.6788749999999997 1.901275634765625 1.6871249999999998 L 1.901275634765625 1.7591249999999996 Q 1.901275634765625 1.8206249999999997 1.876150634765625 1.8663749999999997 Q 1.8510256347656249 1.9121249999999996 1.803025634765625 1.9372499999999997 Q 1.755025634765625 1.9623749999999998 1.689025634765625 1.9623749999999998 M 2.0257525634765625 1.9548749999999997 Q 2.0175025634765626 1.9548749999999997 2.0130025634765625 1.9499999999999997 Q 2.0085025634765623 1.9451249999999998 2.0085025634765623 1.9376249999999997 L 2.0085025634765623 1.4478749999999998 Q 2.0085025634765623 1.4396249999999997 2.0130025634765625 1.4347499999999997 Q 2.0175025634765626 1.4298749999999996 2.0257525634765625 1.4298749999999996 L 2.3355025634765623 1.4298749999999996 Q 2.3437525634765626 1.4298749999999996 2.3482525634765627 1.4347499999999997 Q 2.3527525634765625 1.4396249999999997 2.3527525634765625 1.4478749999999998 L 2.3527525634765625 1.4763749999999995 Q 2.3527525634765625 1.4846249999999996 2.3482525634765627 1.4891249999999996 Q 2.3437525634765626 1.4936249999999998 2.3355025634765623 1.4936249999999998 L 2.0805025634765624 1.4936249999999998 L 2.0805025634765624 1.6578749999999998 L 2.3190025634765625 1.6578749999999998 Q 2.3272525634765624 1.6578749999999998 2.3317525634765626 1.6627499999999997 Q 2.3362525634765623 1.6676249999999997 2.3362525634765623 1.6758749999999996 L 2.3362525634765623 1.7036249999999997 Q 2.3362525634765623 1.7111249999999998 2.3317525634765626 1.7159999999999997 Q 2.3272525634765624 1.7208749999999997 2.3190025634765625 1.7208749999999997 L 2.0805025634765624 1.7208749999999997 L 2.0805025634765624 1.8911249999999997 L 2.3415025634765625 1.8911249999999997 Q 2.3497525634765624 1.8911249999999997 2.3542525634765625 1.8956249999999997 Q 2.3587525634765627 1.9001249999999996 2.3587525634765627 1.9083749999999997 L 2.3587525634765627 1.9376249999999997 Q 2.3587525634765627 1.9451249999999998 2.3542525634765625 1.9499999999999997 Q 2.3497525634765624 1.9548749999999997 2.3415025634765625 1.9548749999999997 L 2.0257525634765625 1.9548749999999997 M 2.59501611328125 1.9548749999999997 Q 2.58751611328125 1.9548749999999997 2.58264111328125 1.9499999999999997 Q 2.57776611328125 1.9451249999999998 2.57776611328125 1.9376249999999997 L 2.57776611328125 1.4966249999999997 L 2.43376611328125 1.4966249999999997 Q 2.42626611328125 1.4966249999999997 2.42139111328125 1.4917499999999997 Q 2.41651611328125 1.4868749999999997 2.41651611328125 1.4793749999999997 L 2.41651611328125 1.4478749999999998 Q 2.41651611328125 1.4396249999999997 2.42139111328125 1.4347499999999997 Q 2.42626611328125 1.4298749999999996 2.43376611328125 1.4298749999999996 L 2.79526611328125 1.4298749999999996 Q 2.80351611328125 1.4298749999999996 2.80839111328125 1.4347499999999997 Q 2.81326611328125 1.4396249999999997 2.81326611328125 1.4478749999999998 L 2.81326611328125 1.4793749999999997 Q 2.81326611328125 1.4868749999999997 2.80839111328125 1.4917499999999997 Q 2.80351611328125 1.4966249999999997 2.79526611328125 1.4966249999999997 L 2.65201611328125 1.4966249999999997 L 2.65201611328125 1.9376249999999997 Q 2.65201611328125 1.9451249999999998 2.64714111328125 1.9499999999999997 Q 2.64226611328125 1.9548749999999997 2.63401611328125 1.9548749999999997 L 2.59501611328125 1.9548749999999997 M 3.079478759765625 1.9548749999999997 Q 3.071228759765625 1.9548749999999997 3.066728759765625 1.9499999999999997 Q 3.062228759765625 1.9451249999999998 3.062228759765625 1.9376249999999997 L 3.062228759765625 1.4478749999999998 Q 3.062228759765625 1.4396249999999997 3.066728759765625 1.4347499999999997 Q 3.071228759765625 1.4298749999999996 3.079478759765625 1.4298749999999996 L 3.385478759765625 1.4298749999999996 Q 3.393728759765625 1.4298749999999996 3.398603759765625 1.4347499999999997 Q 3.403478759765625 1.4396249999999997 3.403478759765625 1.4478749999999998 L 3.403478759765625 1.4778749999999996 Q 3.403478759765625 1.4861249999999997 3.398603759765625 1.4906249999999996 Q 3.393728759765625 1.4951249999999998 3.385478759765625 1.4951249999999998 L 3.134978759765625 1.4951249999999998 L 3.134978759765625 1.6698749999999998 L 3.370478759765625 1.6698749999999998 Q 3.3787287597656253 1.6698749999999998 3.383603759765625 1.6747499999999997 Q 3.388478759765625 1.6796249999999997 3.388478759765625 1.6878749999999996 L 3.388478759765625 1.7178749999999996 Q 3.388478759765625 1.7253749999999997 3.383603759765625 1.7302499999999996 Q 3.3787287597656253 1.7351249999999996 3.370478759765625 1.7351249999999996 L 3.134978759765625 1.7351249999999996 L 3.134978759765625 1.9376249999999997 Q 3.134978759765625 1.9451249999999998 3.130103759765625 1.9499999999999997 Q 3.125228759765625 1.9548749999999997 3.116978759765625 1.9548749999999997 L 3.079478759765625 1.9548749999999997 M 3.68546337890625 1.9623749999999998 Q 3.62096337890625 1.9623749999999998 3.57521337890625 1.9402499999999996 Q 3.52946337890625 1.9181249999999996 3.50471337890625 1.8719999999999997 Q 3.47996337890625 1.8258749999999997 3.47696337890625 1.7561249999999997 Q 3.47621337890625 1.7231249999999996 3.47621337890625 1.6927499999999998 Q 3.47621337890625 1.6623749999999997 3.47696337890625 1.6293749999999996 Q 3.47996337890625 1.5603749999999996 3.50583837890625 1.5142499999999997 Q 3.53171337890625 1.4681249999999997 3.5778383789062502 1.4452499999999997 Q 3.62396337890625 1.4223749999999997 3.68546337890625 1.4223749999999997 Q 3.74621337890625 1.4223749999999997 3.79233837890625 1.4452499999999997 Q 3.83846337890625 1.4681249999999997 3.86471337890625 1.5142499999999997 Q 3.89096337890625 1.5603749999999996 3.89321337890625 1.6293749999999996 Q 3.89471337890625 1.6623749999999997 3.89471337890625 1.6927499999999998 Q 3.89471337890625 1.7231249999999996 3.89321337890625 1.7561249999999997 Q 3.89096337890625 1.8258749999999997 3.86583837890625 1.8719999999999997 Q 3.84071337890625 1.9181249999999996 3.79496337890625 1.9402499999999996 Q 3.74921337890625 1.9623749999999998 3.68546337890625 1.9623749999999998 M 3.68546337890625 1.8986249999999998 Q 3.7424633789062502 1.8986249999999998 3.77883837890625 1.8641249999999996 Q 3.81521337890625 1.8296249999999996 3.81821337890625 1.7523749999999998 Q 3.81971337890625 1.7186249999999996 3.81971337890625 1.6919999999999997 Q 3.81971337890625 1.6653749999999996 3.81821337890625 1.6323749999999997 Q 3.81671337890625 1.5806249999999997 3.79908837890625 1.5483749999999996 Q 3.78146337890625 1.5161249999999997 3.75221337890625 1.5011249999999996 Q 3.72296337890625 1.4861249999999997 3.68546337890625 1.4861249999999997 Q 3.64796337890625 1.4861249999999997 3.61871337890625 1.5011249999999996 Q 3.58946337890625 1.5161249999999997 3.57183837890625 1.5483749999999996 Q 3.55421337890625 1.5806249999999997 3.55196337890625 1.6323749999999997 Q 3.55121337890625 1.6653749999999996 3.55121337890625 1.6919999999999997 Q 3.55121337890625 1.7186249999999996 3.55196337890625 1.7523749999999998 Q 3.55496337890625 1.8296249999999996 3.59171337890625 1.8641249999999996 Q 3.62846337890625 1.8986249999999998 3.68546337890625 1.8986249999999998 M 4.02146484375 1.9548749999999997 Q 4.01321484375 1.9548749999999997 4.00871484375 1.9499999999999997 Q 4.00421484375 1.9451249999999998 4.00421484375 1.9376249999999997 L 4.00421484375 1.4478749999999998 Q 4.00421484375 1.4396249999999997 4.00871484375 1.4347499999999997 Q 4.01321484375 1.4298749999999996 4.02146484375 1.4298749999999996 L 4.20446484375 1.4298749999999996 Q 4.28921484375 1.4298749999999996 4.33871484375 1.4696249999999997 Q 4.38821484375 1.5093749999999997 4.38821484375 1.5873749999999998 Q 4.38821484375 1.6451249999999997 4.35933984375 1.6814999999999998 Q 4.33046484375 1.7178749999999996 4.28096484375 1.7321249999999997 L 4.39646484375 1.9316249999999997 Q 4.39871484375 1.9361249999999997 4.39871484375 1.9398749999999998 Q 4.39871484375 1.9458749999999998 4.39383984375 1.9503749999999997 Q 4.38896484375 1.9548749999999997 4.38296484375 1.9548749999999997 L 4.34696484375 1.9548749999999997 Q 4.33421484375 1.9548749999999997 4.32821484375 1.9481249999999997 Q 4.32221484375 1.9413749999999996 4.31771484375 1.9346249999999996 L 4.20896484375 1.7441249999999997 L 4.07771484375 1.7441249999999997 L 4.07771484375 1.9376249999999997 Q 4.07771484375 1.9451249999999998 4.07283984375 1.9499999999999997 Q 4.06796484375 1.9548749999999997 4.05971484375 1.9548749999999997 L 4.02146484375 1.9548749999999997 M 4.07771484375 1.6803749999999997 L 4.20146484375 1.6803749999999997 Q 4.25771484375 1.6803749999999997 4.28546484375 1.6567499999999997 Q 4.31321484375 1.6331249999999997 4.31321484375 1.5866249999999997 Q 4.31321484375 1.5408749999999998 4.28583984375 1.5168749999999998 Q 4.25846484375 1.4928749999999997 4.20146484375 1.4928749999999997 L 4.07771484375 1.4928749999999997 L 4.07771484375 1.6803749999999997 M 4.68600439453125 1.9623749999999998 Q 4.61925439453125 1.9623749999999998 4.57312939453125 1.9376249999999997 Q 4.52700439453125 1.9128749999999997 4.50262939453125 1.8678749999999997 Q 4.47825439453125 1.8228749999999998 4.47525439453125 1.7621249999999997 Q 4.47450439453125 1.7291249999999998 4.47450439453125 1.6919999999999997 Q 4.47450439453125 1.6548749999999997 4.47525439453125 1.6211249999999997 Q 4.47825439453125 1.5603749999999996 4.50262939453125 1.5157499999999997 Q 4.52700439453125 1.4711249999999998 4.57350439453125 1.4467499999999998 Q 4.62000439453125 1.4223749999999997 4.68600439453125 1.4223749999999997 Q 4.73850439453125 1.4223749999999997 4.77750439453125 1.4373749999999998 Q 4.8165043945312505 1.4523749999999995 4.84162939453125 1.4752499999999997 Q 4.86675439453125 1.4981249999999997 4.87912939453125 1.5228749999999998 Q 4.89150439453125 1.5476249999999996 4.89225439453125 1.5663749999999996 Q 4.89300439453125 1.5731249999999997 4.88850439453125 1.5772499999999998 Q 4.88400439453125 1.5813749999999998 4.87650439453125 1.5813749999999998 L 4.83225439453125 1.5813749999999998 Q 4.82475439453125 1.5813749999999998 4.82137939453125 1.5783749999999996 Q 4.81800439453125 1.5753749999999997 4.81500439453125 1.5678749999999997 Q 4.80825439453125 1.5483749999999996 4.79287939453125 1.5296249999999998 Q 4.77750439453125 1.5108749999999997 4.75162939453125 1.4984999999999997 Q 4.72575439453125 1.4861249999999997 4.68600439453125 1.4861249999999997 Q 4.62600439453125 1.4861249999999997 4.58962939453125 1.5183749999999998 Q 4.55325439453125 1.5506249999999997 4.55025439453125 1.6248749999999996 Q 4.54800439453125 1.6916249999999997 4.55025439453125 1.7583749999999996 Q 4.55325439453125 1.8333749999999998 4.59000439453125 1.8659999999999997 Q 4.62675439453125 1.8986249999999998 4.68600439453125 1.8986249999999998 Q 4.72575439453125 1.8986249999999998 4.75687939453125 1.8836249999999997 Q 4.78800439453125 1.8686249999999998 4.80600439453125 1.8382499999999997 Q 4.82400439453125 1.8078749999999997 4.82400439453125 1.7606249999999997 L 4.82400439453125 1.7291249999999998 L 4.71150439453125 1.7291249999999998 Q 4.70400439453125 1.7291249999999998 4.69912939453125 1.7242499999999996 Q 4.69425439453125 1.7193749999999997 4.69425439453125 1.7111249999999998 L 4.69425439453125 1.6871249999999998 Q 4.69425439453125 1.6788749999999997 4.69912939453125 1.6739999999999997 Q 4.70400439453125 1.6691249999999997 4.71150439453125 1.6691249999999997 L 4.88100439453125 1.6691249999999997 Q 4.88925439453125 1.6691249999999997 4.89375439453125 1.6739999999999997 Q 4.89825439453125 1.6788749999999997 4.89825439453125 1.6871249999999998 L 4.89825439453125 1.7591249999999996 Q 4.89825439453125 1.8206249999999997 4.87312939453125 1.8663749999999997 Q 4.84800439453125 1.9121249999999996 4.80000439453125 1.9372499999999997 Q 4.75200439453125 1.9623749999999998 4.68600439453125 1.9623749999999998 M 5.022731323242187 1.9548749999999997 Q 5.014481323242188 1.9548749999999997 5.0099813232421875 1.9499999999999997 Q 5.005481323242187 1.9451249999999998 5.005481323242187 1.9376249999999997 L 5.005481323242187 1.4478749999999998 Q 5.005481323242187 1.4396249999999997 5.0099813232421875 1.4347499999999997 Q 5.014481323242188 1.4298749999999996 5.022731323242187 1.4298749999999996 L 5.332481323242187 1.4298749999999996 Q 5.340731323242188 1.4298749999999996 5.345231323242188 1.4347499999999997 Q 5.349731323242188 1.4396249999999997 5.349731323242188 1.4478749999999998 L 5.349731323242188 1.4763749999999995 Q 5.349731323242188 1.4846249999999996 5.345231323242188 1.4891249999999996 Q 5.340731323242188 1.4936249999999998 5.332481323242187 1.4936249999999998 L 5.077481323242187 1.4936249999999998 L 5.077481323242187 1.6578749999999998 L 5.3159813232421875 1.6578749999999998 Q 5.324231323242188 1.6578749999999998 5.328731323242187 1.6627499999999997 Q 5.333231323242187 1.6676249999999997 5.333231323242187 1.6758749999999996 L 5.333231323242187 1.7036249999999997 Q 5.333231323242187 1.7111249999999998 5.328731323242187 1.7159999999999997 Q 5.324231323242188 1.7208749999999997 5.3159813232421875 1.7208749999999997 L 5.077481323242187 1.7208749999999997 L 5.077481323242187 1.8911249999999997 L 5.3384813232421875 1.8911249999999997 Q 5.346731323242188 1.8911249999999997 5.351231323242187 1.8956249999999997 Q 5.355731323242187 1.9001249999999996 5.355731323242187 1.9083749999999997 L 5.355731323242187 1.9376249999999997 Q 5.355731323242187 1.9451249999999998 5.351231323242187 1.9499999999999997 Q 5.346731323242188 1.9548749999999997 5.3384813232421875 1.9548749999999997 L 5.022731323242187 1.9548749999999997 M 5.591994873046875 1.9548749999999997 Q 5.584494873046875 1.9548749999999997 5.579619873046875 1.9499999999999997 Q 5.574744873046875 1.9451249999999998 5.574744873046875 1.9376249999999997 L 5.574744873046875 1.4966249999999997 L 5.430744873046875 1.4966249999999997 Q 5.423244873046875 1.4966249999999997 5.418369873046875 1.4917499999999997 Q 5.413494873046875 1.4868749999999997 5.413494873046875 1.4793749999999997 L 5.413494873046875 1.4478749999999998 Q 5.413494873046875 1.4396249999999997 5.418369873046875 1.4347499999999997 Q 5.423244873046875 1.4298749999999996 5.430744873046875 1.4298749999999996 L 5.792244873046875 1.4298749999999996 Q 5.800494873046875 1.4298749999999996 5.805369873046875 1.4347499999999997 Q 5.810244873046875 1.4396249999999997 5.810244873046875 1.4478749999999998 L 5.810244873046875 1.4793749999999997 Q 5.810244873046875 1.4868749999999997 5.805369873046875 1.4917499999999997 Q 5.800494873046875 1.4966249999999997 5.792244873046875 1.4966249999999997 L 5.648994873046875 1.4966249999999997 L 5.648994873046875 1.9376249999999997 Q 5.648994873046875 1.9451249999999998 5.644119873046875 1.9499999999999997 Q 5.639244873046875 1.9548749999999997 5.630994873046875 1.9548749999999997 L 5.591994873046875 1.9548749999999997 M 6.0262294921875 1.9548749999999997 Q 6.0187294921875 1.9548749999999997 6.0138544921875 1.9499999999999997 Q 6.0089794921875 1.9451249999999998 6.0089794921875 1.9376249999999997 L 6.0089794921875 1.4966249999999997 L 5.8649794921875 1.4966249999999997 Q 5.8574794921875 1.4966249999999997 5.8526044921875 1.4917499999999997 Q 5.8477294921875 1.4868749999999997 5.8477294921875 1.4793749999999997 L 5.8477294921875 1.4478749999999998 Q 5.8477294921875 1.4396249999999997 5.8526044921875 1.4347499999999997 Q 5.8574794921875 1.4298749999999996 5.8649794921875 1.4298749999999996 L 6.2264794921875 1.4298749999999996 Q 6.2347294921875 1.4298749999999996 6.2396044921875 1.4347499999999997 Q 6.2444794921875 1.4396249999999997 6.2444794921875 1.4478749999999998 L 6.2444794921875 1.4793749999999997 Q 6.2444794921875 1.4868749999999997 6.2396044921875 1.4917499999999997 Q 6.2347294921875 1.4966249999999997 6.2264794921875 1.4966249999999997 L 6.0832294921875 1.4966249999999997 L 6.0832294921875 1.9376249999999997 Q 6.0832294921875 1.9451249999999998 6.0783544921875 1.9499999999999997 Q 6.0734794921875 1.9548749999999997 6.0652294921875 1.9548749999999997 L 6.0262294921875 1.9548749999999997 M 6.345714111328125 1.9548749999999997 Q 6.337464111328125 1.9548749999999997 6.332964111328125 1.9499999999999997 Q 6.328464111328125 1.9451249999999998 6.328464111328125 1.9376249999999997 L 6.328464111328125 1.4471249999999998 Q 6.328464111328125 1.4396249999999997 6.332964111328125 1.4347499999999997 Q 6.337464111328125 1.4298749999999996 6.345714111328125 1.4298749999999996 L 6.385464111328125 1.4298749999999996 Q 6.393714111328125 1.4298749999999996 6.398214111328125 1.4347499999999997 Q 6.402714111328125 1.4396249999999997 6.402714111328125 1.4471249999999998 L 6.402714111328125 1.9376249999999997 Q 6.402714111328125 1.9451249999999998 6.398214111328125 1.9499999999999997 Q 6.393714111328125 1.9548749999999997 6.385464111328125 1.9548749999999997 L 6.345714111328125 1.9548749999999997 M 6.550471801757812 1.9548749999999997 Q 6.542221801757813 1.9548749999999997 6.5377218017578125 1.9499999999999997 Q 6.533221801757812 1.9451249999999998 6.533221801757812 1.9376249999999997 L 6.533221801757812 1.4478749999999998 Q 6.533221801757812 1.4396249999999997 6.5377218017578125 1.4347499999999997 Q 6.542221801757813 1.4298749999999996 6.550471801757812 1.4298749999999996 L 6.5849718017578125 1.4298749999999996 Q 6.593971801757813 1.4298749999999996 6.598471801757812 1.4339999999999997 Q 6.602971801757812 1.4381249999999997 6.603721801757812 1.4403749999999997 L 6.852721801757813 1.8228749999999998 L 6.852721801757813 1.4478749999999998 Q 6.852721801757813 1.4396249999999997 6.857221801757812 1.4347499999999997 Q 6.861721801757812 1.4298749999999996 6.869971801757813 1.4298749999999996 L 6.905971801757812 1.4298749999999996 Q 6.9142218017578125 1.4298749999999996 6.919096801757813 1.4347499999999997 Q 6.923971801757813 1.4396249999999997 6.923971801757813 1.4478749999999998 L 6.923971801757813 1.9368749999999997 Q 6.923971801757813 1.9443749999999997 6.919096801757813 1.9496249999999997 Q 6.9142218017578125 1.9548749999999997 6.906721801757812 1.9548749999999997 L 6.870721801757813 1.9548749999999997 Q 6.862471801757812 1.9548749999999997 6.858346801757812 1.9503749999999997 Q 6.854221801757813 1.9458749999999998 6.852721801757813 1.9443749999999997 L 6.604471801757812 1.5656249999999998 L 6.604471801757812 1.9376249999999997 Q 6.604471801757812 1.9451249999999998 6.599596801757812 1.9499999999999997 Q 6.594721801757813 1.9548749999999997 6.5864718017578125 1.9548749999999997 L 6.550471801757812 1.9548749999999997 M 7.245727294921875 1.9623749999999998 Q 7.178977294921875 1.9623749999999998 7.132852294921875 1.9376249999999997 Q 7.086727294921875 1.9128749999999997 7.062352294921875 1.8678749999999997 Q 7.037977294921875 1.8228749999999998 7.034977294921875 1.7621249999999997 Q 7.034227294921875 1.7291249999999998 7.034227294921875 1.6919999999999997 Q 7.034227294921875 1.6548749999999997 7.034977294921875 1.6211249999999997 Q 7.037977294921875 1.5603749999999996 7.062352294921875 1.5157499999999997 Q 7.086727294921875 1.4711249999999998 7.133227294921875 1.4467499999999998 Q 7.179727294921875 1.4223749999999997 7.245727294921875 1.4223749999999997 Q 7.298227294921875 1.4223749999999997 7.337227294921875 1.4373749999999998 Q 7.3762272949218755 1.4523749999999995 7.401352294921875 1.4752499999999997 Q 7.426477294921875 1.4981249999999997 7.438852294921875 1.5228749999999998 Q 7.451227294921875 1.5476249999999996 7.451977294921875 1.5663749999999996 Q 7.452727294921875 1.5731249999999997 7.448227294921875 1.5772499999999998 Q 7.443727294921875 1.5813749999999998 7.436227294921875 1.5813749999999998 L 7.391977294921875 1.5813749999999998 Q 7.384477294921875 1.5813749999999998 7.381102294921875 1.5783749999999996 Q 7.377727294921875 1.5753749999999997 7.374727294921875 1.5678749999999997 Q 7.367977294921875 1.5483749999999996 7.352602294921875 1.5296249999999998 Q 7.337227294921875 1.5108749999999997 7.311352294921875 1.4984999999999997 Q 7.285477294921875 1.4861249999999997 7.245727294921875 1.4861249999999997 Q 7.185727294921875 1.4861249999999997 7.149352294921875 1.5183749999999998 Q 7.112977294921875 1.5506249999999997 7.109977294921875 1.6248749999999996 Q 7.107727294921875 1.6916249999999997 7.109977294921875 1.7583749999999996 Q 7.112977294921875 1.8333749999999998 7.149727294921875 1.8659999999999997 Q 7.186477294921875 1.8986249999999998 7.245727294921875 1.8986249999999998 Q 7.285477294921875 1.8986249999999998 7.316602294921875 1.8836249999999997 Q 7.347727294921875 1.8686249999999998 7.365727294921875 1.8382499999999997 Q 7.383727294921875 1.8078749999999997 7.383727294921875 1.7606249999999997 L 7.383727294921875 1.7291249999999998 L 7.271227294921875 1.7291249999999998 Q 7.263727294921875 1.7291249999999998 7.258852294921875 1.7242499999999996 Q 7.253977294921875 1.7193749999999997 7.253977294921875 1.7111249999999998 L 7.253977294921875 1.6871249999999998 Q 7.253977294921875 1.6788749999999997 7.258852294921875 1.6739999999999997 Q 7.263727294921875 1.6691249999999997 7.271227294921875 1.6691249999999997 L 7.440727294921875 1.6691249999999997 Q 7.448977294921875 1.6691249999999997 7.453477294921875 1.6739999999999997 Q 7.457977294921875 1.6788749999999997 7.457977294921875 1.6871249999999998 L 7.457977294921875 1.7591249999999996 Q 7.457977294921875 1.8206249999999997 7.432852294921875 1.8663749999999997 Q 7.407727294921875 1.9121249999999996 7.359727294921875 1.9372499999999997 Q 7.311727294921875 1.9623749999999998 7.245727294921875 1.9623749999999998" fill="#225777" fill-rule="nonzero"></path></g><g clip-path="url(#SvgjsClipPath1001)"><g clip-path="url(#SvgjsClipPath10006487449f-62d5-444c-88dd-5eb6245516b1)"><path d=" M -1.1492901520191123 -0.025762596424036707 L -1.1512213122047297 -0.025762596424036707 L -1.1512213122047297 1.62144180189941 L -0.8392386222180588 1.62144180189941 L -0.8392386222180588 1.3596692767387633 C -0.5312393804634197 1.2144905233841095 -0.3651574587618003 0.8750857280830581 -0.4395199832100327 0.5428047952796112 C -0.5138825076582676 0.2105238624761644 -0.8087899302764265 -0.02571422055484467 -1.1492901520191123 -0.025762596424036707 Z" fill="#225777" transform="matrix(1,0,0,1,0,0)" fill-rule="nonzero"></path></g><g clip-path="url(#SvgjsClipPath10006487449f-62d5-444c-88dd-5eb6245516b1)"><path d=" M -0.5448119339188102 0.7239288356336457 C -0.5569318239187668 0.7239288356336457 -0.566756936028086 0.7141037235243278 -0.566756936028086 0.7019838335243699 C -0.5668257068184452 0.4265944747326953 -0.7622451860538255 0.18996401334773763 -1.0326556008088006 0.13783425930027748 C -1.04035691158365 0.13636478302612653 -1.0466892599265927 0.1308983305327696 -1.0492673114667057 0.12349406159987739 C -1.0518453630068176 0.11608979266698577 -1.0502774503797685 0.1078725919031949 -1.0451541911064302 0.10193779935482264 C -1.0400309318330918 0.09600300680644919 -1.0321306708864617 0.09325225865846029 -1.0244293601493542 0.0947217351314156 C -0.7333202850211886 0.15080257749744722 -0.5229212884170742 0.40552212273621957 -0.5228293118059197 0.7019838335243693 C -0.5228293032445546 0.7078105339033341 -0.5251465227597056 0.7133980398193195 -0.5292701490860838 0.7175146091692083 C -0.5333937754124607 0.7216311785190979 -0.5389852421039749 0.7239388242631942 -0.5448119339200341 0.723928835633644 Z" fill="#3a868f" transform="matrix(1,0,0,1,0,0)" fill-rule="nonzero"></path></g><g clip-path="url(#SvgjsClipPath10006487449f-62d5-444c-88dd-5eb6245516b1)"><path d=" M -1.2113255379817338 1.9806375964240366 C -1.1345754688505751 1.9806375964240366 -1.0723572446245966 1.918419372198057 -1.0723572446245966 1.841669303066897 L -1.350293831338874 1.841669303066897 C -1.3502869068834604 1.9184165038117973 -1.2880727387265196 1.980630671968688 -1.2113255379816779 1.9806375964240366 Z" fill="#225777" transform="matrix(1,0,0,1,0,0)" fill-rule="nonzero"></path></g><g clip-path="url(#SvgjsClipPath10006487449f-62d5-444c-88dd-5eb6245516b1)"><path d=" M -1.1492901520191123 -0.04770759853331252 L -1.1731161543091833 -0.04770759853331252 L -1.1731161543091833 1.5995469597949548 L -1.4937012851226896 1.5995469597949548 C -1.5058211751226476 1.5995469597949548 -1.5156462872319656 1.6093720719042728 -1.5156462872319656 1.6214919619042307 C -1.5156462872319656 1.6336118519041887 -1.5058211751226476 1.6434369640135067 -1.4937012851226896 1.6434369640135067 L -0.817293620108783 1.6434369640135067 L -0.817293620108783 1.3734381980621833 C -0.5051716597098601 1.2191597889594727 -0.34042533571049804 0.8702278472085525 -0.4196292970226838 0.5311870263757406 C -0.49883325833486936 0.19214620554292858 -0.801120732086612 -0.04768109577649974 -1.1492901520191123 -0.0477075985333113 Z M -1.1292261500906315 0.922750554743685 L -1.032668140809818 0.922750554743685 C -1.0513163563163346 1.0162111221925891 -1.0601839540609288 1.1113591851961893 -1.0591275433530036 1.2066561820316877 L -1.0591275433530036 1.599546959794956 L -1.129188530087016 1.599546959794956 Z M -0.848568383114803 1.3398184548307723 L -0.8611083843201033 1.3457624154020857 L -0.8611083843201033 1.599546959794956 L -1.0153253191428886 1.599546959794956 L -1.0153253191428886 1.2066561820316868 C -1.0166107642930593 1.111218875785576 -1.0072737257039623 1.01593481757117 -0.9874865164671194 0.9225624547256016 C -0.8610707643164865 0.9195653944375383 -0.8120393596037623 0.8814187107710143 -0.793254437798222 0.8492034476745969 C -0.7769651661081234 0.8209976896677347 -0.7773304219119896 0.7861590143752253 -0.7942074778898243 0.7583009789373738 C -0.8081963641296024 0.7331415431363448 -0.8336086921847496 0.7164169903377945 -0.8622495244297852 0.7135206346332456 C -0.9019667587079496 0.711130075158408 -0.9403741888254944 0.7281621223791274 -0.9652656343313297 0.7592038590241544 C -0.9876871564864067 0.7845095814564507 -1.0068357383269009 0.8256658654122468 -1.021858659770851 0.8788605505251315 L -1.129276310095455 0.8788605505251315 L -1.129276310095455 -0.003541714288244062 C -0.8029197272035058 0.005768640144770833 -0.5255860914928554 0.2377932572082634 -0.458816840221274 0.5573823198828336 C -0.39204758894969016 0.8769713825574039 -0.5532879447482135 1.2006238444388382 -0.8486185431196249 1.3398184548307723 Z M -0.9755985953244968 0.878246090466074 C -0.9672907976916381 0.8456994795879418 -0.9525977528601381 0.8151283982036878 -0.9323732111698246 0.7883092018216589 C -0.9176365513073002 0.7698679954332491 -0.8958339836260452 0.7584616855048465 -0.8722815253940255 0.7568714187999706 C -0.8704511064187599 0.7568727200216738 -0.8686219876228911 0.7569689894319829 -0.8668015448673108 0.7571598388276926 C -0.8522185684069794 0.7584604514757475 -0.8392703285019938 0.76701562272713 -0.8323541615563488 0.7799199410153137 C -0.8233841614559871 0.7942502911159884 -0.8229039292056761 0.8123214306951859 -0.83110016143582 0.8271079655508584 C -0.8395521222481921 0.841453726929722 -0.8699867051734556 0.8734181900020329 -0.9756487553293178 0.8782460904660735 Z" fill="#173054" transform="matrix(1,0,0,1,0,0)" fill-rule="nonzero"></path></g><g clip-path="url(#SvgjsClipPath10006487449f-62d5-444c-88dd-5eb6245516b1)"><path d=" M -1.8695627412491602 0.6642258898952105 C -1.914198497554108 0.6755881900785553 -1.9473318563476252 0.7131114846081185 -1.9530816135878646 0.7588104222111903 C -1.9588313708281067 0.8045093598142616 -1.9360257632788158 0.8490707933818655 -1.8955957837513644 0.8711359097826675 C -1.884954520331402 0.8769396056797909 -1.871623246786502 0.8730179823607283 -1.8658195508893805 0.8623767189407656 C -1.8600158549922563 0.8517354555208031 -1.8639374783113178 0.838404181975903 -1.8745787417312805 0.8326004860787797 C -1.8991983269339008 0.8191997853442742 -1.9131002401244666 0.7920899706818488 -1.9096149737609742 0.7642771018240634 C -1.906129707397483 0.7364642329662773 -1.8859683554040645 0.7136229298688943 -1.8588034202150117 0.7067114139787687 C -1.8471737394731365 0.7036385514459681 -1.840185207837612 0.6917763031776001 -1.8431341484636172 0.6801145834293069 C -1.8460830890896223 0.668452863681013 -1.8578703029240935 0.6613385050717238 -1.8695627412491589 0.6641631898891837 Z" fill="#173054" transform="matrix(1,0,0,1,0,0)" fill-rule="nonzero"></path></g><g clip-path="url(#SvgjsClipPath10006487449f-62d5-444c-88dd-5eb6245516b1)"><path d=" M -1.5622323917096583 0.44970408927613587 C -1.554432518494349 0.4489043895852582 -1.5476517731466397 0.4440042537346133 -1.54444439685776 0.4368495155065568 C -1.5412370205688803 0.4296947772784997 -1.5420902901063545 0.42137241163394373 -1.5466827870879705 0.4150173732198726 C -1.551275284069586 0.4086623348058009 -1.5589092989400877 0.40524010515508746 -1.5667091721315645 0.40603980507841925 C -1.6365045857921445 0.4132203583507074 -1.6927842801169695 0.4663677333970434 -1.7039455529807614 0.5356381174022219 C -1.7151068258445545 0.6049085014074005 -1.6783688903106884 0.6730434524994883 -1.6143611767200905 0.7017831935050851 C -1.6033078370641483 0.7067558111285314 -1.5903162317796644 0.7018264120151829 -1.5853436140738646 0.6907730723962887 C -1.5803709963680646 0.6797197327773946 -1.5853003953846172 0.6667281274561843 -1.5963537349664634 0.66175550966803 C -1.6422529120349074 0.6411539242717549 -1.6686001862367361 0.5922996704892883 -1.6605988907554088 0.5426293670424251 C -1.6525975952740788 0.4929590635955621 -1.6122415516741346 0.4548499214447954 -1.56219477170604 0.44970408927613403 Z" fill="#173054" transform="matrix(1,0,0,1,0,0)" fill-rule="nonzero"></path></g><g clip-path="url(#SvgjsClipPath10006487449f-62d5-444c-88dd-5eb6245516b1)"><path d=" M -1.505376026244826 0.9106494535805698 C -1.446859997547664 0.8829834777230907 -1.407439765683335 0.8263216691555025 -1.4018457762938656 0.761837259277268 C -1.4008069285795837 0.7497658488373113 -1.409750587773952 0.739137884709918 -1.4218219982139098 0.7380990369956355 C -1.4338934086538666 0.7370601892813531 -1.444521372781261 0.7460038484757212 -1.445560220495543 0.7580752589156785 C -1.4508226268594346 0.8200265260648447 -1.4970093397665316 0.8707346337606245 -1.5582013528898115 0.881743264558608 C -1.6193933660130913 0.8927518953565913 -1.6803572265984175 0.8613205043949679 -1.7068813056127978 0.8050877234343506 C -1.7102189882017593 0.7979912276565898 -1.7170890695424477 0.7932144276192162 -1.7249036564615838 0.7925566976809608 C -1.7327182433807213 0.7918989677427043 -1.7402901142145397 0.7954602327287281 -1.7447670184774857 0.8018989985738918 C -1.7492439227404304 0.8083377644190549 -1.7499457121684205 0.8166758294118142 -1.7466080294737123 0.8237723251398388 C -1.7039619375343844 0.9143884537880882 -1.5959432227291548 0.9532913585589143 -1.505313326238801 0.9106745335829797 Z" fill="#173054" transform="matrix(1,0,0,1,0,0)" fill-rule="nonzero"></path></g><g clip-path="url(#SvgjsClipPath10006487449f-62d5-444c-88dd-5eb6245516b1)"><path d=" M -1.461022041981677 1.2778457688741778 C -1.483082143955356 1.3008525302325435 -1.5187986666351492 1.3038915125122728 -1.5444286235573748 1.284942515824985 C -1.570058580479599 1.2659935191376972 -1.5776234745139166 1.2309552859647446 -1.5620944516963982 1.203119901691791 C -1.556190333853562 1.1925340434832572 -1.5599856343026475 1.1791662766648079 -1.5705714925111818 1.173262158821971 C -1.5811573507197165 1.1673580409791349 -1.5945251175381663 1.1711533414282203 -1.6004292353810023 1.1817391996367546 C -1.6266726872178718 1.2288563898161855 -1.6138511631180412 1.2881327909927371 -1.5704816631208618 1.3201926544471156 C -1.5271121631236835 1.352252517901496 -1.4666820525996922 1.3471256320295377 -1.4293334589358824 1.3082176517934156 C -1.4239080444026229 1.3025570316743238 -1.4219146595718342 1.2944319787581704 -1.4241041932352823 1.286903121917521 C -1.4262937268987317 1.2793742650768722 -1.4323335367971457 1.2735854168006657 -1.4399484849405744 1.2717171802623106 C -1.4475634330840053 1.269848943723956 -1.4555966276662407 1.272185148504767 -1.4610220419609221 1.2778457688525227 Z" fill="#173054" transform="matrix(1,0,0,1,0,0)" fill-rule="nonzero"></path></g><g clip-path="url(#SvgjsClipPath10006487449f-62d5-444c-88dd-5eb6245516b1)"><path d=" M -1.2409450208286552 1.2715757682715272 C -1.2405625197044374 1.2699776628907147 -1.24036476481109 1.2683409255819393 -1.2403556407720058 1.266697707802665 L -1.2403556407720058 1.2585968670240408 C -1.2403556407720058 1.2576814469360542 -1.2402302407599524 1.256803646851683 -1.2402302407599524 1.255888226763696 C -1.2402302407599524 1.2554744067239212 -1.2403305607695954 1.2550856666865564 -1.2403556407720058 1.2546342266431654 L -1.2403556407720058 1.0347202255058123 C -1.2403556407720058 1.0344443454792955 -1.2402804007647745 1.0341810054539846 -1.2402678607635693 1.0339051254274678 C -1.2402678607635693 1.033165265356355 -1.2402678607635693 1.032463025288858 -1.2403556407720058 1.031748245220156 L -1.2403556407720058 0.2817558531335462 C -1.2407400588613258 0.27986915530223416 -1.2407400588613258 0.277924310415241 -1.2403556407720058 0.276037612583929 C -1.2403470575896458 0.10303911283645603 -1.3763657748985751 -0.03939048053234379 -1.5491813589884373 -0.047343774460476155 C -1.7219969430782995 -0.05529706838860852 -1.870522740386121 0.07403725829863939 -1.8864039628678597 0.2463052697259301 C -1.8890624431234033 0.2468821097816054 -1.891746003381339 0.24722068981414835 -1.8943794036344501 0.2478978498792349 C -1.9647337359800932 0.26569438368392634 -2.022925371801645 0.31498611879926663 -2.0520512339374943 0.381455155576597 C -2.0811770960733464 0.447924192353928 -2.0779720810362874 0.5241191364701938 -2.0433671579546253 0.5879074425597508 C -2.1010517806928957 0.6480297141816316 -2.127188068356286 0.7317323979422841 -2.113963682087806 0.813996113231917 C -2.1007392958193263 0.8962598285215504 -2.0496863521658155 0.9675538797872122 -1.9760649714857776 1.0065679227999125 C -1.9865160438543026 1.0304457783791374 -1.9918595354125113 1.0562448902988715 -1.9917525129936084 1.0823095300799288 C -1.9915856505325304 1.1888470792232235 -1.906197464670784 1.2756623967413363 -1.79967731453202 1.2775949688500723 C -1.778375880670602 1.4149719054844612 -1.6607530968679745 1.5167322772321317 -1.5217407278177426 1.518049491961707 L -1.5186684275224436 1.518049491961707 C -1.4426386051377222 1.5191459428662797 -1.3692010325001611 1.490432594667995 -1.3140783078579652 1.4380568242730964 C -1.2695261622048228 1.3938072371838741 -1.2433943628620372 1.334320651437161 -1.2409450208286552 1.2715757682715272 Z M -1.521289287774352 1.4741594877431567 C -1.6519645634580784 1.4731712091845557 -1.7576856489942108 1.3675394386792354 -1.7587843706015371 1.2368650449352558 C -1.7589545502619455 1.173900087872929 -1.7339299618461703 1.1134834525421726 -1.689287683921759 1.069079828808333 C -1.6809693811749071 1.0604707564890394 -1.681085545901241 1.046783491662639 -1.6895487714076127 1.0383168452890446 C -1.6980119969139846 1.0298501989154518 -1.711699213677995 1.0297285028733807 -1.7203116469036766 1.0380433258252166 C -1.77236388495918 1.0898681102796361 -1.8018971864520095 1.1601172692233748 -1.802511354804421 1.2335670246182615 C -1.8836300070115277 1.2301766931550038 -1.9476875803534415 1.1634988842449085 -1.9478248887714398 1.082309530079927 C -1.9478936756527403 1.0621668949685255 -1.9437504388983413 1.0422323733883405 -1.9356610876022986 1.0237853444547897 C -1.9224487523643297 1.028228868229749 -1.9089106637878164 1.031637498150066 -1.895169423710383 1.033980365434699 C -1.8939716067335601 1.0341791420367938 -1.892759560755142 1.0342797963741015 -1.8915453633620518 1.0342813254636263 C -1.8801349667541543 1.0342495596698185 -1.8706504302701492 1.0254834776293333 -1.8697217887154103 1.0141108884484136 C -1.8687931471606714 1.002738299267493 -1.8767299146542054 0.9925496610655301 -1.8879840030197463 0.9906672012715917 C -1.984447148330382 0.9745156321756706 -2.05898816036788 0.8971581714096555 -2.071552684797601 0.8001625822659416 C -2.0841172092273204 0.7031669931222284 -2.0317470653061194 0.6093698330510782 -1.9425831682676244 0.5691726807590333 C -1.9315332914133787 0.5641896745561923 -1.9266151210089422 0.5511924548230087 -1.931598127211782 0.540142577968762 C -1.9365811334146217 0.5290927011145146 -1.9495783531478057 0.524174530710079 -1.9606282300020512 0.5291575369129182 C -1.9778777347679997 0.5369528032399087 -1.9942436314193681 0.5465713934115843 -2.0094464546942867 0.5578490596706466 C -2.0336413618199685 0.5067533033880502 -2.033991239974248 0.44757126963820104 -2.0104021487364734 0.3961930192253391 C -1.9868130574986977 0.3448147688124772 -1.941702142070578 0.30650496794209675 -1.887181442942607 0.291549594074886 C -1.8843497420188744 0.35623307854008546 -1.8620013017288657 0.41854378265853104 -1.8230769567811118 0.47028223125403334 C -1.8183728406636404 0.47655438756569646 -1.810679902366102 0.4798404826663414 -1.8028959976762138 0.47890267617065796 C -1.7951120929863258 0.47796486967497576 -1.7884197823825154 0.4729456367213939 -1.78533999483449 0.4657356740374663 C -1.782260207286463 0.4585257113535387 -1.7832608358609203 0.45022038395986114 -1.7879649534080948 0.4439482287204723 C -1.8610690193123691 0.3465458398975901 -1.8627900303766856 0.21304872451357232 -1.792221216441258 0.11379414124092449 C -1.721652402505828 0.014539557968276065 -1.5949966564777438 -0.02768322845098492 -1.4789866410426513 0.009372218107246442 C -1.3629766256075602 0.046427664665477805 -1.2842487223541417 0.15425325969864984 -1.2842832649941731 0.2760376125839296 C -1.2838988469048522 0.2779243104152416 -1.2838988469048522 0.2798691553022348 -1.284283264994172 0.2817558531335468 L -1.284283264994172 0.48382543255575805 C -1.3170445408651288 0.45943210391249123 -1.3607709999964595 0.45562743004763073 -1.3972530091197428 0.4739958455840917 C -1.4337350182430262 0.49236426112055265 -1.4567188585783832 0.5297570659741695 -1.4566330415598219 0.5706022408964383 C -1.4566330415598219 0.5827221308963956 -1.446807929450503 0.5925472430057135 -1.4346880394505463 0.5925472430057135 C -1.4225681494505895 0.5925472430057135 -1.4127430373412704 0.5827221308963956 -1.4127430373412704 0.5706022408964377 C -1.4127430373412704 0.5351290542794184 -1.3839863377847403 0.5063723547228884 -1.3485131511677217 0.5063723547228884 C -1.3130399645507032 0.5063723547228884 -1.2842832649941731 0.5351290542794184 -1.2842832649941731 0.5706022408964377 L -1.2842832649941731 1.0322874652719842 C -1.2871330336650155 1.07034359243986 -1.3182051228697234 1.100135153258913 -1.3563474349026234 1.101381760366145 C -1.3944897469355222 1.1026283674733768 -1.427440805948071 1.0749292784354307 -1.4327694192661329 1.037140445738436 C -1.4334815291066652 1.0321159552968848 -1.4336873814470716 1.0270326628093076 -1.433383879325194 1.0219670442800224 C -1.4329201877326285 1.0141268500948248 -1.4366744128729798 1.0066348354006416 -1.443232374448862 1.0023131696657788 C -1.4497903360247428 0.9979915039309158 -1.4581557236498626 0.9974967509988631 -1.46517737672059 1.0010152795135965 C -1.4721990297913152 1.004533808028329 -1.4768101921514316 1.0115310697978313 -1.4772738835416457 1.0193712639949974 C -1.4777367981038312 1.027372733516434 -1.4774007357472714 1.0354004230587264 -1.47627068344732 1.0433352063338543 C -1.4703347332129022 1.0856166518458221 -1.442090149128796 1.1214254730242703 -1.402354488385904 1.137047041610447 C -1.3626188276430087 1.1526686101966241 -1.3175498042300977 1.1456820994165131 -1.2844086650062254 1.1187633135837367 L -1.2844086650062254 1.2585592470204263 C -1.2839005961276098 1.3141496322650652 -1.305783871977721 1.3676059285796311 -1.3451273508422885 1.4068823812767182 C -1.392721790684707 1.4515922090578477 -1.4560081054918768 1.4757615626270715 -1.521289287774352 1.4741594877431567 Z" fill="#173054" transform="matrix(1,0,0,1,0,0)" fill-rule="nonzero"></path></g><g clip-path="url(#SvgjsClipPath10006487449f-62d5-444c-88dd-5eb6245516b1)"><path d=" M -1.6889741838916295 0.29803277469802636 C -1.6768542938916715 0.29803277469802636 -1.6670291817823537 0.2882076625887084 -1.6670291817823537 0.2760877725887505 C -1.6674380776614806 0.23904205414874452 -1.647908772805345 0.20463408067565036 -1.6158926529898756 0.1859921783441405 C -1.5838765331744051 0.16735027601263003 -1.544312630602882 0.16735027601263003 -1.5122965107874116 0.1859921783441405 C -1.480280390971941 0.20463408067565098 -1.4607510861158066 0.23904205414874574 -1.461159981994936 0.2760877725887505 C -1.461159981994936 0.2882076625887084 -1.4513348698856168 0.29803277469802636 -1.43921497988566 0.29803277469802636 C -1.4270950898857022 0.29803277469802636 -1.4172699777763844 0.2882076625887084 -1.4172699777763844 0.2760877725887505 C -1.4167822105587016 0.22330908312442177 -1.444659655097468 0.17432950321563645 -1.490287780409657 0.1477983487189649 C -1.5359159057218448 0.12126719422229279 -1.592273258055441 0.12126719422229279 -1.6379013833676288 0.1477983487189637 C -1.6835295086798168 0.174329503215634 -1.7114069532185845 0.22330908312441872 -1.710919186000904 0.2760877725887505 C -1.7109191860009054 0.2882076625887084 -1.701094073891586 0.29803277469802636 -1.6889741838916295 0.29803277469802636 Z" fill="#173054" transform="matrix(1,0,0,1,0,0)" fill-rule="nonzero"></path></g><g clip-path="url(#SvgjsClipPath10006487449f-62d5-444c-88dd-5eb6245516b1)"><path d=" M -0.9291128108564473 1.819724300957621 L -1.4935382651070206 1.819724300957621 C -1.5056581551069785 1.819724300957621 -1.5154832672162963 1.829549413066939 -1.5154832672162963 1.841669303066897 C -1.5154832672162963 1.8537891930668549 -1.5056581551069785 1.8636143051761729 -1.4935382651070206 1.8636143051761729 L -1.3705584732866394 1.8636143051761729 C -1.359762666472884 1.9433079213956432 -1.2917219843941858 2.0027528515746544 -1.2113004579793247 2.0027528515746544 C -1.1308789315644625 2.0027528515746544 -1.0628382494857644 1.9433079213956432 -1.0520424426720076 1.8636143051761729 L -0.9290751908528316 1.8636143051761729 C -0.9169553008528737 1.8636143051761729 -0.9071301887435559 1.8537891930668549 -0.9071301887435559 1.841669303066897 C -0.9071301887435559 1.829549413066939 -0.9169553008528737 1.819724300957621 -0.9290751908528316 1.819724300957621 Z M -1.2112628379757078 1.958692594314761 C -1.2674078771580621 1.958617538673272 -1.315617963093404 1.9187474610596422 -1.3262295690259012 1.8636143051761729 L -1.0962961069255133 1.8636143051761729 C -1.106915834602196 1.9187632907767984 -1.1551508568827122 1.9586365941927242 -1.2113129979805288 1.958692594314761 Z" fill="#173054" transform="matrix(1,0,0,1,0,0)" fill-rule="nonzero"></path></g><g clip-path="url(#SvgjsClipPath10006487449f-62d5-444c-88dd-5eb6245516b1)"><path d=" M -0.9291128108564473 1.7096356303762894 L -1.4935382651070206 1.7096356303762894 C -1.5056581551069785 1.7096356303762894 -1.5154832672162963 1.719460742485607 -1.5154832672162963 1.731580632485565 C -1.5154832672162963 1.7437005224855215 -1.5056581551069785 1.753525634594841 -1.4935382651070206 1.753525634594841 L -0.9291128108564473 1.753525634594841 C -0.9169929208564906 1.753525634594841 -0.9071678087471715 1.7437005224855215 -0.9071678087471715 1.731580632485565 C -0.9071678087471715 1.719460742485607 -0.9169929208564906 1.7096356303762894 -0.9291128108564473 1.7096356303762894 Z" fill="#173054" transform="matrix(1,0,0,1,0,0)" fill-rule="nonzero"></path></g></g></g><defs><clipPath id="SvgjsClipPath1001"><path d=" M -2.1173280850634875 -0.04770759853331252 h 1.7173280850634873 v 2.0502901970666247 h -1.7173280850634873 Z"></path></clipPath><clipPath id="SvgjsClipPath10006487449f-62d5-444c-88dd-5eb6245516b1"><path d=" M -2.1173280850634875 -0.04770759853331252 L -0.40000000000000013 -0.04770759853331252 L -0.40000000000000013 2.002582598533312 L -2.1173280850634875 2.002582598533312 Z"></path></clipPath></defs></svg>